<svg width="75" height="38" viewBox="0 0 75 38" fill="none" xmlns="http://www.w3.org/2000/svg">
<g clip-path="url(#clip0_17_7)">
<path d="M49.1341 25.1667L39.5833 15.6159L32.7214 22.4714C31.9076 23.2852 30.5924 23.2852 29.7786 22.4714L19.3602 12.0547C18.5466 11.2409 18.5466 9.92582 19.3602 9.11202C20.1738 8.29691 21.4928 8.29691 22.3066 9.11202L31.1914 18.0508L38.112 11.1953C38.9258 10.3815 40.2409 10.3815 41.0547 11.1953L52.0833 22.2175V16.7748C52.0833 15.681 53.0143 14.6914 54.1667 14.6914C55.319 14.6914 56.25 15.681 56.25 16.7748V27.25C56.25 28.4024 55.319 29.3334 54.1667 29.3334H43.75C42.5977 29.3334 41.6667 28.4024 41.6667 27.25C41.6667 26.0977 42.5977 25.1667 43.75 25.1667H49.1341Z" fill="#B4003E"/>
</g>
<defs>
<clipPath id="clip0_17_7">
<rect width="37.5" height="33.3333" fill="white" transform="translate(18.75 2.25003)"/>
</clipPath>
</defs>
</svg>
